# xmcd CD database file
#
# Track frame offsets:
#	187
#	23327
#	48277
#	68247
#
# Disc length: 1313 seconds
#
# Revision: 0
# Processed by: cddbd v1.5.1PL0 Copyright (c) Steve Scherf et al.
# Submitted via: CDex 1.51
#
DISCID=26051f04
DTITLE=M-Age - someday ep
DYEAR=1992
DGENRE=Techno
TTITLE0=somday close your eyes-サムデイ・クローズ・ユア・アイズ(フラビリー・スパイラル・ミックス)-
TTITLE1=tears-ティアーズ(プラデニー・ミックス)-
TTITLE2=i'll keep on holding on-アイル・キープ・オン・ホールディング・オン-
TTITLE3=last temptation-ラスト・テンプテイション-
EXTD=YEAR: 1992
EXTT0=
EXTT1=
EXTT2=
EXTT3=
PLAYORDER=
